<?xml version="1.0" standalone="no"?>
<!DOCTYPE svg PUBLIC "-//W3C//DTD SVG 20010904//EN"
 "http://www.w3.org/TR/2001/REC-SVG-20010904/DTD/svg10.dtd">
<svg version="1.0" xmlns="http://www.w3.org/2000/svg"
 width="1815.000000pt" height="2058.000000pt" viewBox="0 0 1815.000000 2058.000000"
 preserveAspectRatio="xMidYMid meet">

<g transform="translate(0.000000,2058.000000) scale(0.100000,-0.100000)"
fill="#000000" stroke="none">
<path d="M8643 20379 c-46 -13 -76 -55 -118 -166 -45 -119 -130 -333 -589
-1498 -436 -1107 -441 -1120 -979 -2475 -191 -480 -1264 -3165 -1450 -3625
-80 -198 -267 -664 -417 -1035 -553 -1371 -1366 -3374 -2000 -4925 -193 -473
-397 -972 -452 -1108 l-102 -248 -30 7 c-48 10 -217 79 -319 130 -180 91 -346
212 -474 347 -238 252 -435 663 -558 1165 -21 84 -47 167 -59 185 -32 47 -111
97 -155 97 -125 0 -162 -41 -273 -297 -224 -515 -328 -861 -400 -1328 -21
-134 -23 -184 -23 -480 0 -295 3 -344 23 -460 74 -437 206 -779 437 -1136 163
-251 370 -457 633 -629 88 -58 161 -109 161 -114 1 -6 -86 -222 -193 -480
-110 -267 -199 -497 -205 -530 -18 -100 -14 -216 10 -275 40 -94 108 -120 794
-300 4017 -1051 7930 -1207 11815 -472 888 168 1717 370 2660 647 140 41 272
79 293 85 47 13 112 70 140 123 15 30 20 59 20 106 -1 59 -10 87 -108 320
-233 556 -275 659 -275 670 0 6 57 38 128 72 155 74 406 243 517 348 44 42
102 96 129 121 52 47 131 148 213 270 268 398 423 821 478 1299 21 181 16 590
-9 775 -56 401 -157 768 -331 1195 -71 174 -141 329 -170 378 -32 53 -86 82
-165 89 l-68 6 -47 -44 c-60 -56 -70 -76 -106 -222 -80 -324 -185 -607 -310
-828 -247 -439 -710 -766 -1244 -879 -49 -11 -93 -16 -96 -12 -4 4 -181 421
-394 927 -1830 4346 -3678 8668 -5073 11865 -348 799 -428 982 -667 1525 -319
727 -312 712 -368 761 -65 57 -144 76 -224 53z m-2093 -13224 c425 -40 821
-162 1170 -360 160 -91 369 -235 483 -333 119 -103 245 -224 318 -304 46 -51
86 -95 89 -98 17 -17 157 -187 205 -250 127 -166 172 -200 268 -200 34 0 74 7
93 16 37 18 107 90 181 188 188 246 451 522 648 679 335 268 644 431 1060 560
354 110 929 150 1205 84 340 -82 578 -214 821 -456 192 -192 356 -430 515
-745 199 -395 387 -621 674 -809 319 -209 597 -314 896 -338 159 -13 240 -4
473 53 733 177 1284 684 1587 1461 20 53 41 94 45 90 11 -13 85 -248 122 -388
39 -148 61 -247 77 -355 6 -41 17 -102 23 -135 8 -39 12 -175 12 -395 -1 -326
-1 -339 -28 -467 -83 -399 -226 -723 -453 -1029 -134 -180 -198 -239 -429
-394 -78 -53 -303 -165 -580 -290 -129 -58 -433 -172 -509 -191 -21 -5 -50
-16 -65 -23 -14 -7 -81 -27 -147 -44 -67 -18 -152 -42 -190 -55 -38 -14 -100
-34 -139 -45 -38 -11 -101 -30 -140 -41 -145 -42 -448 -96 -715 -126 -74 -8
-166 -21 -205 -27 -49 -9 -199 -13 -500 -13 -433 0 -443 1 -710 42 -55 8 -136
19 -180 24 -205 22 -440 64 -555 99 -36 11 -128 38 -205 59 -187 53 -371 108
-420 126 -22 8 -114 37 -205 65 -765 238 -1301 488 -1668 777 -142 111 -215
151 -311 169 -74 14 -89 14 -158 0 -92 -20 -147 -50 -311 -174 -437 -328 -887
-531 -1837 -827 -328 -102 -399 -123 -495 -150 -52 -14 -124 -34 -160 -45
-116 -35 -351 -77 -555 -99 -44 -5 -125 -16 -180 -24 -55 -9 -136 -21 -180
-27 -111 -17 -717 -24 -895 -11 -224 16 -551 57 -695 86 -38 8 -122 24 -185
36 -63 12 -189 44 -280 71 -91 27 -187 56 -215 63 -219 61 -427 125 -440 136
-5 5 -16 9 -24 9 -25 0 -382 146 -564 231 -256 120 -389 193 -522 287 -148
105 -196 151 -289 272 -292 380 -458 778 -517 1240 -18 133 -18 501 -1 640 31
258 89 518 172 775 29 88 55 163 58 167 4 4 27 -43 51 -105 158 -399 411 -765
691 -999 313 -262 673 -421 1118 -493 89 -15 124 -15 245 -6 288 22 590 136
902 341 272 179 481 429 660 790 110 221 214 391 344 560 88 115 298 322 398
393 175 124 409 223 643 272 141 29 371 33 610 10z"/>
</g>
</svg>
